<svg width="373" height="96" viewBox="0 0 373 96" fill="none" xmlns="http://www.w3.org/2000/svg">
<path d="M40.8214 8C5.62138 13.6 0.823893 38 1.00003 50.5C1.17616 63 10.7214 86.7999 42.3214 87.9999H84.8214L90.8214 80.9999V87.9999H123V72.5H140L153.5 87.9999H199.321L196.821 83.9999L204.321 87.9999H271.821L351 87.5C359 84.5 369.5 75.5 370 62.5C370.5 49.5 364.5 39 355.5 36.5L363 25C368.5 18 373 9 372 8.5C368.5 8.5 297.53 7.99998 295 8C291 8.00004 283.321 12.7854 278.5 18L287 8H279H218.821C217.821 8 193.679 9.5 185.5 22C177.179 11.5 165.821 8.16667 157.821 8H106L97 20L102 8H40.8214Z" fill="#261734"/>
<path d="M92.6343 16L79.6343 32.5H41.6343C37.9676 32.8333 30.1343 36.1 28.1343 46.5C26.1343 56.9 36.3009 62.5 41.6343 64H92.6343L79.6343 80L37.6343 79C26.9676 76.6667 6.1343 66.9 8.1343 46.5C10.1343 26.1 30.301 17.6667 40.1343 16H92.6343Z" fill="#00AD31" stroke="#00AD31"/>
<path d="M107.634 16L94.6343 32L155.634 33C157.468 33 161.234 34.3 161.634 39.5C162.034 44.7 156.468 46.6667 153.634 47H94.6343V80H114.634V63H145.134L159.134 80H185.634L165.634 58.5C170.634 58.3333 180.834 54.1 181.634 38.5C182.434 22.9 164.634 17 155.634 16H107.634Z" fill="#00AD31" stroke="#00AD31"/>
<path d="M272.656 15.9645L259.656 32.4645C246.989 32.1311 221.456 31.6645 220.656 32.4645C219.656 33.4645 209.156 34.4645 207.656 47.4645C206.456 57.8645 216.489 62.7978 221.656 63.9645H250.656V53.9645H217.656L229.156 39.9645H270.656V79.9645C255.156 79.6311 223.256 79.1645 219.656 79.9645C215.156 80.9645 188.656 71.4645 187.656 46.4645C186.856 26.4645 208.656 17.7978 219.656 15.9645H272.656Z" fill="#00AD31" stroke="#00AD31"/>
<path d="M347.656 32.5H298.656C297.822 32.5 296.056 33.3 295.656 36.5C295.256 39.7 297.489 41.1667 298.656 41.5H343.156C348.822 41 360.456 43.7 361.656 58.5C362.856 73.3 350.489 79 344.156 80H274.656L287.156 64H338.156C341.156 64 343.156 62.5 343.156 58.5C343.156 55.3 339.822 54.1667 338.156 54H297.156C289.989 54 275.856 50.3 276.656 35.5C277.456 20.7 290.656 16.3333 297.156 16H360.156L347.656 32.5Z" fill="#00AD31" stroke="#00AD31"/>
</svg>
